<svg width="18" height="18" xmlns="http://www.w3.org/2000/svg" stroke-width="0.00024000000000000003" stroke="#ffffff" fill="none">
    <path fill="#22c55e" d="m0,4c0,-1.40013 0,-2.1002 0.27248,-2.63498c0.23969,-0.4704 0.62214,-0.85285 1.09254,-1.09254c0.53478,-0.27248 1.23485,-0.27248 2.63498,-0.27248l10,0c1.4001,0 2.1002,0 2.635,0.27248c0.4704,0.23969 0.8528,0.62214 1.0925,1.09254c0.2725,0.53478 0.2725,1.23485 0.2725,2.63498l0,10c0,1.4001 0,2.1002 -0.2725,2.635c-0.2397,0.4704 -0.6221,0.8528 -1.0925,1.0925c-0.5348,0.2725 -1.2349,0.2725 -2.635,0.2725l-10,0l-0.00003,0c-1.40011,0 -2.10017,0 -2.63495,-0.2725c-0.4704,-0.2397 -0.85285,-0.6221 -1.09254,-1.0925c-0.27248,-0.5348 -0.27248,-1.2349 -0.27248,-2.635l0,-10zm7.8293,4c-0.4118,-1.16519 -1.52308,-2 -2.8293,-2c-1.65685,0 -3,1.3431 -3,3c0,1.6569 1.34315,3 3,3c1.30622,0 2.4175,-0.8348 2.8293,-2l2.1707,0l0,1c0,0.5523 0.4477,1 1,1c0.5523,0 1,-0.4477 1,-1l0,-1l1,0l0,1c0,0.5523 0.4477,1 1,1c0.5523,0 1,-0.4477 1,-1l0,-1.85c0,-0.6351 -0.5149,-1.15 -1.15,-1.15l-2.85,0l-3.1707,0zm-1.8293,1c0,-0.5523 -0.44772,-1 -1,-1c-0.55228,0 -1,0.4477 -1,1c0,0.5523 0.44772,1 1,1c0.55228,0 1,-0.4477 1,-1z" clip-rule="evenodd" fill-rule="evenodd"/>
</svg>